<svg xmlns="http://www.w3.org/2000/svg" width="24" height="24" viewBox="0 0 24 24" fill="none">
  <path d="M12 21C16.9706 21 21 16.9706 21 12C21 7.02944 16.9706 3 12 3C7.02944 3 3 7.02944 3 12C3 16.9706 7.02944 21 12 21Z" stroke="#191C1F" stroke-width="1.5" stroke-miterlimit="10"/>
  <path d="M3.51562 9H20.4844" stroke="#191C1F" stroke-width="1.5" stroke-linecap="round" stroke-linejoin="round"/>
  <path d="M3.51562 15H20.4844" stroke="#191C1F" stroke-width="1.5" stroke-linecap="round" stroke-linejoin="round"/>
  <path d="M12 20.7547C14.0711 20.7547 15.75 16.8344 15.75 11.9984C15.75 7.16249 14.0711 3.24219 12 3.24219C9.92893 3.24219 8.25 7.16249 8.25 11.9984C8.25 16.8344 9.92893 20.7547 12 20.7547Z" stroke="#191C1F" stroke-width="1.5" stroke-miterlimit="10"/>
</svg>